<?xml version="1.0" encoding="UTF-8" standalone="no"?>
<!-- Created with Inkscape (http://www.inkscape.org/) -->

<svg
   width="200mm"
   height="200mm"
   viewBox="0 0 200 200"
   version="1.1"
   id="svg5"
   inkscape:version="1.1 (c68e22c387, 2021-05-23)"
   sodipodi:docname="0.svg"
   xmlns:inkscape="http://www.inkscape.org/namespaces/inkscape"
   xmlns:sodipodi="http://sodipodi.sourceforge.net/DTD/sodipodi-0.dtd"
   xmlns="http://www.w3.org/2000/svg"
   xmlns:svg="http://www.w3.org/2000/svg">
  <sodipodi:namedview
     id="namedview7"
     pagecolor="#ffffff"
     bordercolor="#666666"
     borderopacity="1.0"
     inkscape:pageshadow="2"
     inkscape:pageopacity="0.0"
     inkscape:pagecheckerboard="0"
     inkscape:document-units="mm"
     showgrid="false"
     width="200mm"
     inkscape:zoom="0.67081229"
     inkscape:cx="396.53418"
     inkscape:cy="560.51448"
     inkscape:window-width="1920"
     inkscape:window-height="1017"
     inkscape:window-x="-8"
     inkscape:window-y="-8"
     inkscape:window-maximized="1"
     inkscape:current-layer="layer1" />
  <defs
     id="defs2" />
  <g
     inkscape:label="图层 1"
     inkscape:groupmode="layer"
     id="layer1">
    <path
       style="fill:#0000ff;stroke-width:0.264583"
       id="path42"
       d="m 76.728261,30.999133 c -3.230475,2.88756 -6.695795,5.504826 -9.816907,8.516803 -0.890958,0.859803 -1.73137,1.770491 -2.597057,2.655734 -6.126702,6.58818 -10.307201,14.602499 -14.370497,22.547807 -2.773506,6.078096 -5.596155,12.215386 -7.079462,18.764726 -0.259831,1.147252 -0.433803,2.312276 -0.650703,3.468412 -0.811681,5.451269 -1.269986,10.996345 -1.202272,16.513645 0.01609,1.31056 0.09677,2.61953 0.145148,3.9293 0.134919,5.43128 0.985052,10.79566 2.440601,16.02467 0.909294,3.2666 1.365679,4.39906 2.476265,7.55218 0.769877,1.83005 2.196973,5.38432 3.196627,7.11628 0.748715,1.29719 1.615752,2.52472 2.500527,3.73322 2.032053,2.77555 4.127701,5.22428 6.669365,7.56013 1.439593,1.32302 3.010665,2.49541 4.515996,3.74311 4.45767,3.46548 9.321408,6.36579 14.51248,8.59107 4.436438,1.9018 9.074036,3.22296 13.70702,4.53447 2.668307,0.46404 6.20378,1.93323 8.974678,1.52913 0.71718,-0.10459 1.42908,-0.34646 2.05372,-0.71404 5.18459,-3.05097 4.25245,-2.38723 7.01821,-6.08327 3.33224,-4.89515 5.90385,-10.23314 8.55178,-15.51076 0.96892,-1.93117 3.69865,-7.24183 4.68037,-9.15558 4.29336,-8.70543 7.99943,-17.70025 10.68423,-27.03775 0.52494,-1.82573 0.95703,-3.67689 1.43555,-5.51533 1.25138,-6.450556 2.45761,-13.060019 1.77753,-19.661254 -0.37442,-3.634296 -1.00269,-5.585614 -1.89251,-9.095661 -2.63865,-9.340768 -6.9987,-18.031004 -11.69202,-26.480214 -1.91218,-3.33916 -4.02894,-6.55638 -6.29132,-9.667684 -0.99839,-1.373005 -2.45945,-3.302386 -3.60871,-4.601186 -0.5163,-0.583465 -1.0806,-1.122609 -1.6209,-1.683912 -2.25408,-2.441088 -5.07839,-4.128947 -8.132,-5.36317 -3.354451,-1.138801 -6.894555,-1.400312 -10.400736,-1.663513 -2.192769,-0.06063 -4.410522,-0.431252 -6.599373,-0.149754 -0.941615,0.169234 -1.847045,0.519707 -2.715865,0.914833 -0.494676,0.238889 -0.977705,0.500384 -1.45686,0.768685 0,0 -3.061859,2.473433 -3.061859,2.473433 v 0 c 0.474351,-0.267223 0.950397,-0.527118 1.428258,-0.786971 0.867794,-0.401627 1.751407,-0.797422 2.683015,-1.023292 2.196831,-0.430263 4.467212,-0.03093 6.684656,-0.02222 3.46837,0.229378 6.948966,0.529164 10.275572,1.610455 3.046102,1.167096 5.856812,2.815072 8.155462,5.162542 0.54995,0.544209 1.12374,1.065337 1.64985,1.632622 3.93329,4.241091 7.04567,9.192617 10.06365,14.096691 1.76434,3.082623 2.79082,4.783687 4.40663,8.002172 2.96028,5.896475 5.45999,12.037033 7.2646,18.387268 0.97389,3.798996 1.45658,5.091859 1.84832,9.038778 0.64917,6.540648 -0.38704,13.108046 -1.67201,19.501052 -0.46727,1.82717 -0.88659,3.66727 -1.40181,5.4815 -2.65877,9.36227 -6.49621,18.32916 -10.81244,27.03584 -1.99683,3.88789 -2.71359,5.27178 -4.68838,9.16313 -2.69592,5.31234 -5.36372,10.6652 -8.8053,15.54889 -0.69123,0.85983 -1.70829,1.53855 -2.0737,2.57951 -0.13743,0.39151 1.54535,-0.45219 1.23161,-0.18064 -1.16279,1.00641 -3.05156,1.00471 -4.43213,0.88246 -1.63435,-0.14473 -5.241814,-1.01789 -6.695903,-1.344 -3.109706,-0.83021 -5.719377,-1.4753 -8.789652,-2.52087 -7.03603,-2.39608 -13.666171,-5.76905 -19.529898,-10.36938 -1.476166,-1.2521 -3.0172,-2.43152 -4.428498,-3.7563 -3.476501,-3.2634 -6.604966,-7.13716 -8.954148,-11.29535 -1.109411,-1.96373 -2.310336,-5.0166 -3.174381,-7.08735 -1.067491,-2.95398 -1.664253,-4.43206 -2.50862,-7.49533 -1.436257,-5.21058 -2.222183,-10.57611 -2.369021,-15.97847 -0.118669,-6.813396 0.05392,-13.659987 1.14205,-20.401036 0.224557,-1.150615 0.412014,-2.309096 0.673671,-3.451847 1.483633,-6.47958 4.155197,-12.602855 6.929462,-18.614255 4.087495,-7.964503 8.358634,-15.959134 14.558808,-22.516695 0.867061,-0.87849 1.708627,-1.782897 2.601185,-2.635469 3.239744,-3.094607 6.834487,-5.775629 10.239931,-8.67791 0,0 -3.651885,1.479918 -3.651885,1.479918 z" />
  </g>
</svg>
