<?xml version="1.0" encoding="UTF-8" standalone="no"?>
<!-- Created with Inkscape (http://www.inkscape.org/) -->

<svg
   width="200mm"
   height="200mm"
   viewBox="0 0 200 200"
   version="1.1"
   id="svg12"
   inkscape:version="1.1 (c68e22c387, 2021-05-23)"
   sodipodi:docname="2.svg"
   xmlns:inkscape="http://www.inkscape.org/namespaces/inkscape"
   xmlns:sodipodi="http://sodipodi.sourceforge.net/DTD/sodipodi-0.dtd"
   xmlns="http://www.w3.org/2000/svg"
   xmlns:svg="http://www.w3.org/2000/svg">
  <sodipodi:namedview
     id="namedview14"
     pagecolor="#ffffff"
     bordercolor="#666666"
     borderopacity="1.0"
     inkscape:pageshadow="2"
     inkscape:pageopacity="0.0"
     inkscape:pagecheckerboard="0"
     inkscape:document-units="mm"
     showgrid="false"
     inkscape:zoom="0.16770307"
     inkscape:cx="292.18308"
     inkscape:cy="787.10544"
     inkscape:window-width="1124"
     inkscape:window-height="771"
     inkscape:window-x="594"
     inkscape:window-y="174"
     inkscape:window-maximized="0"
     inkscape:current-layer="layer1" />
  <defs
     id="defs9" />
  <g
     inkscape:label="图层 1"
     inkscape:groupmode="layer"
     id="layer1">
    <path
       style="fill:#0000ff;stroke-width:0.264583"
       id="path95"
       d="m 76.358053,63.550132 c 5.727023,-7.554364 14.892393,-11.703465 23.365489,-15.372159 7.418448,-2.259811 15.858938,-2.695437 22.357358,2.311705 3.36223,2.590657 5.32388,5.908542 7.75205,9.303035 3.14516,5.006811 6.05693,10.264801 5.72241,16.40627 -0.37643,6.911007 -3.53104,13.281797 -6.35977,19.429415 -2.93784,4.976492 -6.3286,9.928252 -10.64824,13.839512 -3.10215,2.80888 -7.47761,5.37168 -10.8917,7.57755 -2.82641,1.82618 -5.64999,3.65675 -8.474985,5.48512 -3.162515,2.0916 -6.318896,4.19251 -9.487543,6.27481 -7.184094,4.72107 -9.80358,6.46441 -16.892418,10.79285 -1.881968,1.14914 -3.89023,2.10067 -5.687891,3.37766 -0.630486,0.44788 -2.151742,1.29202 -1.526508,1.7472 1.122534,0.81722 2.774646,0.1143 4.161967,0.17145 18.03079,-3.45934 36.151138,-6.01667 54.456838,-7.38286 0,0 2.72556,-2.01246 2.72556,-2.01246 v 0 c -18.2003,1.44718 -36.219916,3.99058 -54.192892,7.2025 -1.205471,0.17502 -2.493663,0.99751 -3.616418,0.52505 -0.606448,-0.25519 0.730946,-1.13184 1.266643,-1.51385 1.743056,-1.243 3.680039,-2.18907 5.502116,-3.31305 8.894172,-5.48649 17.576649,-11.29886 26.304691,-17.04329 2.88326,-1.85107 5.76805,-3.69976 8.64978,-5.55322 3.67103,-2.36112 7.76239,-4.72761 11.02153,-7.72552 4.27989,-3.93685 7.62413,-8.905239 10.50633,-13.900393 2.80595,-6.201002 5.98983,-12.679997 6.34869,-19.630937 0.31988,-6.195756 -2.69989,-11.495879 -5.86071,-16.539445 -2.4461,-3.483454 -4.36356,-6.80824 -7.77296,-9.472713 -4.59555,-3.591462 -10.79889,-4.663406 -16.4961,-4.00191 -2.08678,0.242292 -4.08437,0.985535 -6.12655,1.478303 -10.564171,4.522767 -22.11938,10.194944 -29.765211,19.054755 0,0 3.658444,-1.515378 3.658444,-1.515378 z" />
  </g>
</svg>
