<?xml version="1.0" encoding="UTF-8" standalone="no"?>
<!-- Created with Inkscape (http://www.inkscape.org/) -->

<svg
   width="200mm"
   height="200mm"
   viewBox="0 0 200 200"
   version="1.1"
   id="svg105"
   inkscape:version="1.1 (c68e22c387, 2021-05-23)"
   sodipodi:docname="3.svg"
   xmlns:inkscape="http://www.inkscape.org/namespaces/inkscape"
   xmlns:sodipodi="http://sodipodi.sourceforge.net/DTD/sodipodi-0.dtd"
   xmlns="http://www.w3.org/2000/svg"
   xmlns:svg="http://www.w3.org/2000/svg">
  <sodipodi:namedview
     id="namedview107"
     pagecolor="#ffffff"
     bordercolor="#666666"
     borderopacity="1.0"
     inkscape:pageshadow="2"
     inkscape:pageopacity="0.0"
     inkscape:pagecheckerboard="0"
     inkscape:document-units="mm"
     showgrid="false"
     inkscape:zoom="0.67081229"
     inkscape:cx="396.53418"
     inkscape:cy="441.25608"
     inkscape:window-width="1402"
     inkscape:window-height="729"
     inkscape:window-x="228"
     inkscape:window-y="114"
     inkscape:window-maximized="0"
     inkscape:current-layer="layer1" />
  <defs
     id="defs102" />
  <g
     inkscape:label="图层 1"
     inkscape:groupmode="layer"
     id="layer1">
    <path
       style="fill:#0000ff;stroke-width:0.264583"
       id="path142"
       d="m 64.075621,45.176431 c 5.187011,-1.926238 10.787796,-2.552453 16.260212,-3.085597 2.303614,-0.224427 4.609984,-0.479033 6.924165,-0.518565 2.300949,-0.03931 4.598717,0.188291 6.898076,0.282438 2.193888,0.465629 4.437499,0.73923 6.581666,1.396886 7.65655,2.348399 14.24019,7.130941 17.98883,14.318446 0.73716,1.413385 1.12105,2.984537 1.68157,4.476808 -0.0401,1.405712 0.4119,2.915502 -0.12043,4.217143 -0.63078,1.542362 -1.91843,2.769039 -3.18132,3.856186 -3.33686,2.872517 -6.09873,3.939693 -10.04988,5.408414 -6.82901,2.538476 -6.21427,2.206887 -13.04448,4.036869 -8.611164,1.792798 -2.440655,0.588923 -9.99897,1.88984 -0.519525,0.08942 -1.158438,-0.05057 -1.552953,0.299087 -0.714325,0.633106 -2.248556,1.807348 -1.521537,2.42583 1.109642,0.943986 2.91401,-0.03216 4.370552,-0.0021 2.23234,0.046 4.462989,0.15344 6.694482,0.230161 7.297833,0.318339 14.579116,1.535719 21.534356,3.801756 2.43941,0.794766 7.49648,2.846522 9.79969,4.405916 1.16716,0.790223 2.11151,1.867722 3.16726,2.801582 0.63909,1.208104 1.50378,2.321629 1.91725,3.624311 1.35979,4.284078 0.42501,9.858888 -1.98814,13.601918 -2.579,4.00026 -4.76297,4.80971 -8.6958,7.40404 -10.02448,4.31228 -20.771453,6.54634 -31.602064,7.55888 -1.67773,0.15684 -3.362716,0.22289 -5.044074,0.33434 -4.429393,0.16898 -8.975979,0.16959 -13.14866,-1.49077 -1.185634,-0.62194 -0.587216,-0.28927 -1.792959,-1.00211 0,0 -3.138318,2.02762 -3.138318,2.02762 v 0 c 1.216334,0.76238 0.599207,0.41599 1.848805,1.04375 0.377026,0.14363 0.745249,0.31293 1.131075,0.4309 4.137628,1.26516 8.662559,0.81267 12.897078,0.61821 6.263235,-0.5836 12.481991,-1.28279 18.656323,-2.5331 4.216594,-0.85387 10.132604,-2.24192 14.147984,-3.8784 2.86215,-1.16648 5.57222,-2.67592 8.35833,-4.01388 4.05915,-2.70522 6.26026,-3.51531 8.90639,-7.65978 2.4158,-3.78374 3.43325,-9.59605 2.05642,-13.927111 -0.425,-1.336916 -1.33391,-2.468314 -2.00086,-3.702471 -1.11094,-0.92706 -2.10479,-2.015969 -3.33284,-2.781181 -2.21322,-1.379085 -8.01546,-3.49088 -10.24972,-4.165279 -2.2472,-0.678305 -4.5341,-1.223151 -6.82507,-1.734487 -7.54908,-1.684925 -7.09241,-1.416841 -14.633485,-2.176584 -2.075582,-0.191299 -4.150709,-0.387631 -6.226749,-0.573895 -1.267751,-0.113744 -2.552843,-0.556963 -3.804579,-0.326125 -1.526717,0.281548 -2.893528,1.135523 -4.287705,1.81846 -0.655661,0.321175 1.355402,-0.558599 2.065158,-0.729747 3.442435,-0.830099 7.010254,-1.083937 10.400135,-2.166117 2.148412,-0.586722 4.31881,-1.098169 6.445232,-1.760162 5.903543,-1.837875 9.767143,-3.402277 15.375973,-6.484327 2.80914,-1.543624 7.65653,-4.406405 8.9936,-7.855944 0.51212,-1.321231 -0.0358,-2.833799 -0.0536,-4.250698 -1.79743,-4.326125 -1.79489,-5.182629 -4.94741,-8.966393 -1.23765,-1.485472 -2.57836,-2.907737 -4.09071,-4.1124 -3.10158,-2.470579 -7.41322,-4.538255 -11.17113,-5.68097 -2.16305,-0.657746 -4.423373,-0.937823 -6.63506,-1.406736 -2.30379,-0.101677 -4.605461,-0.328885 -6.911369,-0.30503 -2.285722,0.02365 -4.564234,0.266655 -6.842926,0.447325 -2.101535,0.166624 -4.199893,0.373296 -6.29639,0.594456 -2.999028,0.316365 -5.991651,0.59691 -8.865322,1.558724 0,0 -3.046072,2.379704 -3.046072,2.379704 z" />
  </g>
</svg>
