<?xml version="1.0" encoding="UTF-8" standalone="no"?>
<!-- Created with Inkscape (http://www.inkscape.org/) -->

<svg
   width="200mm"
   height="200mm"
   viewBox="0 0 200 200"
   version="1.1"
   id="svg5"
   inkscape:version="1.1 (c68e22c387, 2021-05-23)"
   sodipodi:docname="4.svg"
   xmlns:inkscape="http://www.inkscape.org/namespaces/inkscape"
   xmlns:sodipodi="http://sodipodi.sourceforge.net/DTD/sodipodi-0.dtd"
   xmlns="http://www.w3.org/2000/svg"
   xmlns:svg="http://www.w3.org/2000/svg">
  <sodipodi:namedview
     id="namedview7"
     pagecolor="#ffffff"
     bordercolor="#666666"
     borderopacity="1.0"
     inkscape:pageshadow="2"
     inkscape:pageopacity="0.0"
     inkscape:pagecheckerboard="0"
     inkscape:document-units="mm"
     showgrid="false"
     width="200mm"
     inkscape:zoom="0.67081229"
     inkscape:cx="395.78881"
     inkscape:cy="561.25984"
     inkscape:window-width="1336"
     inkscape:window-height="1004"
     inkscape:window-x="182"
     inkscape:window-y="0"
     inkscape:window-maximized="0"
     inkscape:current-layer="layer1" />
  <defs
     id="defs2" />
  <g
     inkscape:label="图层 1"
     inkscape:groupmode="layer"
     id="layer1">
    <path
       style="fill:#0000ff;stroke-width:0.264583"
       id="path42"
       d="m 59.490231,33.854641 c 0.08282,5.046549 -0.406046,10.083887 -0.900128,15.0989 -0.824439,8.368239 -1.09465,11.508994 -2.790397,20.176633 -0.802216,4.100433 -1.823164,8.155029 -2.734746,12.232544 -2.9689,11.339589 -2.760771,10.903585 -5.898357,21.597852 -0.785587,2.67763 -1.649404,5.33205 -2.422432,8.01333 -0.863814,2.99618 -2.427798,6.82179 -1.532845,10.14945 0.256326,0.95308 1.098037,1.6403 1.647055,2.46045 1.301041,0.33584 2.560616,0.95124 3.903126,1.00751 2.714212,0.11375 5.430194,-0.24229 8.134246,-0.50304 8.023151,-0.77365 15.771688,-2.13456 23.750677,-3.35664 9.457262,-1.4485 18.917833,-2.87531 28.37535,-4.32215 16.07406,-2.23015 32.16503,-4.9334 48.41909,-5.41936 1.56454,-0.0468 3.13041,-0.0217 4.69561,-0.0326 0,0 2.41143,-1.76141 2.41143,-1.76141 v 0 c -1.65336,0.0712 -3.30842,0.11032 -4.96009,0.21349 -16.71422,1.04411 -33.24083,4.0006 -49.78892,6.41709 -13.684478,2.06918 -27.36576,4.25709 -41.114012,5.87217 -4.672888,0.54895 -12.300357,1.464 -17.299302,1.0853 -1.237512,-0.0937 -2.403544,-0.61956 -3.605316,-0.92935 -0.58384,-0.73132 -1.423254,-1.31764 -1.75152,-2.19396 -1.220349,-3.25779 0.0093,-6.49979 0.767659,-9.66271 0.628867,-2.62297 1.360638,-5.22019 2.03626,-7.8315 2.966336,-11.465061 2.360805,-9.146806 5.451369,-21.390648 0.98099,-4.113641 2.034521,-8.210659 2.942976,-12.340923 0.833729,-3.790524 1.60528,-7.595884 2.282693,-11.41744 0.541165,-3.052938 0.936077,-6.130116 1.371944,-9.199857 0.738267,-5.199504 1.371042,-10.41478 1.899033,-15.63975 0,0 -3.290453,1.676569 -3.290453,1.676569 z" />
    <path
       style="fill:#0000ff;stroke-width:0.264583"
       id="path44"
       d="m 106.00559,34.768316 c 0.0831,1.23952 0.19531,2.477434 0.24932,3.71856 0.0769,1.767671 0.0731,3.538146 0.14342,5.306094 0.28244,7.106013 0.51124,8.822095 0.90481,16.534082 0.31632,6.198489 0.69854,16.386953 0.93808,22.465438 0.7059,22.51805 2.39249,44.98525 3.49256,67.48392 0.28496,7.98201 0.7029,15.96196 0.81161,23.94937 0,0 3.21126,-1.67155 3.21126,-1.67155 v 0 c -1.28036,-7.67292 -1.41907,-15.50131 -2.18287,-23.22985 -1.70548,-22.38443 -3.46057,-44.77568 -3.97791,-67.22744 -0.17333,-7.554907 -0.42968,-15.108063 -0.55162,-22.663976 -0.053,-3.285005 -0.0367,-6.570762 -0.0538,-9.856152 -0.0286,-5.506252 -0.1074,-7.341282 0.1092,-12.539408 0.0553,-1.325666 0.16622,-2.648421 0.24933,-3.972634 0,0 -3.3434,1.703546 -3.3434,1.703546 z" />
  </g>
</svg>
