<?xml version="1.0" encoding="UTF-8" standalone="no"?>
<!-- Created with Inkscape (http://www.inkscape.org/) -->

<svg
   width="200mm"
   height="200mm"
   viewBox="0 0 200 200"
   version="1.1"
   id="svg55"
   inkscape:version="1.1 (c68e22c387, 2021-05-23)"
   sodipodi:docname="5.svg"
   xmlns:inkscape="http://www.inkscape.org/namespaces/inkscape"
   xmlns:sodipodi="http://sodipodi.sourceforge.net/DTD/sodipodi-0.dtd"
   xmlns="http://www.w3.org/2000/svg"
   xmlns:svg="http://www.w3.org/2000/svg">
  <sodipodi:namedview
     id="namedview57"
     pagecolor="#ffffff"
     bordercolor="#666666"
     borderopacity="1.0"
     inkscape:pageshadow="2"
     inkscape:pageopacity="0.0"
     inkscape:pagecheckerboard="0"
     inkscape:document-units="mm"
     showgrid="false"
     inkscape:zoom="0.67081229"
     inkscape:cx="397.27954"
     inkscape:cy="560.51448"
     inkscape:window-width="1379"
     inkscape:window-height="1001"
     inkscape:window-x="205"
     inkscape:window-y="20"
     inkscape:window-maximized="0"
     inkscape:current-layer="layer1" />
  <defs
     id="defs52" />
  <g
     inkscape:label="图层 1"
     inkscape:groupmode="layer"
     id="layer1">
    <path
       style="fill:#0000ff;stroke-width:0.264583"
       id="path92"
       d="m 81.547408,41.428355 c 0.339804,6.124585 0.547881,12.267215 0.100542,18.39361 -0.401334,5.496378 -0.91879,8.279615 -1.728618,13.743893 -0.489953,4.253518 -1.828237,8.33384 -2.602315,12.528224 -0.405471,2.197068 -1.366615,6.070306 0.277556,8.291682 2.180939,2.946577 7.107446,2.802789 9.964531,3.269168 11.65698,0.812792 23.246816,2.432668 34.655786,4.972108 6.33477,1.41002 14.79333,3.63335 20.92631,6.09645 2.63241,1.05722 5.10464,2.47623 7.65695,3.71435 5.43786,4.38024 6.4703,4.51074 10.31146,10.22509 2.31485,3.44371 3.96103,6.36776 3.43137,10.64295 -0.57639,4.65242 -2.60523,5.60255 -5.71439,8.7569 -1.2616,0.66904 -2.45624,1.48348 -3.78479,2.00712 -8.71116,3.4334 -18.01538,5.01613 -27.31037,5.77135 -3.11947,0.25345 -6.2524,0.47215 -9.38109,0.3909 -2.9836,-0.0775 -5.94124,-0.5773 -8.91185,-0.86595 -2.77401,-0.76064 -5.59766,-1.35911 -8.32201,-2.28191 -7.237541,-2.45154 -14.783569,-6.57818 -20.668363,-11.50748 -0.823584,-0.68987 -1.574122,-1.46252 -2.361181,-2.19378 -0.531088,-0.62458 -1.062175,-1.24917 -1.593263,-1.87376 0,0 -2.971625,1.80077 -2.971625,1.80077 v 0 c 0.584205,0.60743 1.168413,1.21487 1.752621,1.8223 0.851392,0.70171 1.671323,1.44345 2.554179,2.10514 6.265362,4.69583 14.088845,8.65287 21.495589,11.07738 2.756753,0.90239 5.600193,1.51455 8.400293,2.27182 3.00085,0.27852 5.98952,0.76994 9.00255,0.83556 5.06599,0.11033 14.28936,-0.7964 19.2335,-1.54609 4.72484,-0.71644 12.55426,-2.2133 17.10267,-4.21074 2.91721,-1.2811 5.55876,-3.11536 8.33813,-4.67304 3.13145,-3.24533 5.2627,-4.26207 5.69741,-9.02782 0.3868,-4.24047 -1.47324,-7.27619 -3.82446,-10.59897 -4.09227,-5.78323 -4.94451,-5.73427 -10.65379,-10.1344 -2.65215,-1.18113 -5.23342,-2.53637 -7.95643,-3.5434 -6.28345,-2.32377 -14.92924,-4.40463 -21.35862,-5.82121 -11.09925,-2.445471 -22.31921,-4.321213 -33.59763,-5.712866 -2.552687,-0.546499 -7.218677,-0.777954 -9.254659,-3.331527 -1.733759,-2.174521 -1.028039,-5.602285 -0.672756,-7.918723 0.640712,-4.177437 1.935617,-8.238497 2.402586,-12.449132 0.860454,-5.713751 1.303409,-8.077888 1.824262,-13.818592 0.571074,-6.294199 0.542647,-12.609878 0.891313,-18.914996 0,0 -3.351398,1.707621 -3.351398,1.707621 z" />
    <path
       style="fill:#0000ff;stroke-width:0.264583"
       id="path94"
       d="m 87.551796,74.49136 c 10.602674,-1.012876 21.197634,-2.096284 31.820734,-2.880313 6.89098,-0.508582 10.61317,-0.69842 17.33597,-1.085577 0,0 1.85079,-1.363869 1.85079,-1.363869 v 0 c -9.23218,0.714542 -18.46532,1.395066 -27.70276,2.038188 -2.67107,0.185966 -12.624283,0.912646 -15.904886,1.032053 -1.429885,0.05205 -2.861664,0.0013 -4.292497,0.0019 0,0 -3.107351,2.257621 -3.107351,2.257621 z" />
  </g>
</svg>
