<?xml version="1.0" encoding="UTF-8" standalone="no"?>
<!-- Created with Inkscape (http://www.inkscape.org/) -->

<svg
   width="200mm"
   height="200mm"
   viewBox="0 0 200 200"
   version="1.1"
   id="svg105"
   inkscape:version="1.1 (c68e22c387, 2021-05-23)"
   sodipodi:docname="6.svg"
   xmlns:inkscape="http://www.inkscape.org/namespaces/inkscape"
   xmlns:sodipodi="http://sodipodi.sourceforge.net/DTD/sodipodi-0.dtd"
   xmlns="http://www.w3.org/2000/svg"
   xmlns:svg="http://www.w3.org/2000/svg">
  <sodipodi:namedview
     id="namedview107"
     pagecolor="#ffffff"
     bordercolor="#666666"
     borderopacity="1.0"
     inkscape:pageshadow="2"
     inkscape:pageopacity="0.0"
     inkscape:pagecheckerboard="0"
     inkscape:document-units="mm"
     showgrid="false"
     inkscape:zoom="0.67081229"
     inkscape:cx="396.53418"
     inkscape:cy="560.51448"
     inkscape:window-width="1920"
     inkscape:window-height="1017"
     inkscape:window-x="-8"
     inkscape:window-y="-8"
     inkscape:window-maximized="1"
     inkscape:current-layer="layer1" />
  <defs
     id="defs102" />
  <g
     inkscape:label="图层 1"
     inkscape:groupmode="layer"
     id="layer1">
    <path
       style="fill:#0000ff;stroke-width:0.264583"
       id="path142"
       d="M 100.08088,28.795667 C 92.789358,33.464013 86.343097,39.323158 79.852117,45.012136 77.002139,47.509977 74.15591,50.012091 71.307808,52.51207 58.661011,63.782064 45.323386,74.652176 35.239729,88.418756 c -5.801886,7.92095 -6.109171,9.554332 -10.220373,18.159944 -0.80927,2.96133 -1.883048,5.8628 -2.427812,8.884 -1.374606,7.62342 -0.833099,15.5193 3.36168,22.22833 3.787435,6.05754 6.176492,6.86352 11.982363,11.03501 3.711041,1.31951 7.351938,2.856 11.133119,3.95853 8.358796,2.43729 17.862502,4.05259 26.463728,5.14765 8.420833,1.0721 17.042458,1.73608 25.541456,1.69343 3.35464,-0.0168 6.70132,-0.32828 10.05198,-0.49242 2.62666,-0.43008 5.28919,-0.68016 7.87997,-1.29023 5.00877,-1.17945 8.74903,-3.05636 12.96434,-6.17044 1.97827,-1.46146 4.03125,-4.36961 4.72257,-6.75783 0.39768,-1.37381 0.32701,-2.84166 0.49052,-4.26249 -0.36416,-3.87986 -0.24534,-5.35434 -1.68232,-9.09877 -0.65476,-1.70615 -1.52634,-3.32451 -2.40693,-4.92583 -0.88295,-1.6056 -1.79471,-3.2056 -2.87755,-4.68379 -2.92479,-3.99262 -4.87839,-5.45101 -8.53445,-8.81943 -1.8089,-1.35644 -3.53857,-2.82553 -5.4267,-4.06933 C 109.854,104.73823 102.70367,101.68703 95.334208,99.632536 89.74506,98.074368 84.964637,97.352351 79.285599,96.336698 73.071031,95.494469 66.829304,94.494304 60.539476,94.442332 c -2.627006,-0.0217 -6.533986,0.257 -9.18573,0.624988 -1.302597,0.180766 -2.588615,0.465635 -3.882922,0.698452 -3.664561,0.707734 -7.188263,1.935015 -10.708256,3.142546 0,0 -2.777358,2.163372 -2.777358,2.163372 v 0 c 3.52352,-1.239896 7.052839,-2.490053 10.726825,-3.222956 1.303298,-0.25041 2.597716,-0.552503 3.909888,-0.751234 2.699835,-0.408898 6.594832,-0.738434 9.27912,-0.755262 6.368256,-0.03992 12.700944,0.86155 19.000102,1.66451 6.172441,1.057344 9.945227,1.542336 16.030109,3.256472 7.316066,2.06097 14.391316,5.10479 20.725726,9.33417 1.86644,1.2462 3.57373,2.71567 5.3606,4.07351 3.6859,3.44572 5.44613,4.74712 8.38962,8.80505 1.06921,1.47403 1.99421,3.05265 2.85754,4.65597 2.56621,4.76586 3.73334,8.52545 3.85442,13.93328 -0.19239,1.39124 -0.16337,2.83157 -0.57716,4.17371 -0.88581,2.87306 -2.53277,4.51564 -4.65835,6.52973 -0.44874,0.42521 -0.92905,0.85112 -1.49749,1.09412 -6.00414,2.56675 -7.35004,2.3765 -14.16094,3.62679 -3.42032,0.22342 -6.83391,0.60783 -10.26094,0.67026 -8.590203,0.15646 -17.19676,-0.44354 -25.712631,-1.53573 -8.17408,-1.04835 -18.257903,-2.829 -26.191265,-5.28151 -3.666101,-1.13334 -7.164874,-2.7502 -10.747312,-4.1253 -5.717016,-4.20228 -7.998999,-4.99099 -11.740684,-11.00272 -4.107106,-6.59885 -4.796669,-14.40912 -3.502903,-21.9331 0.514249,-2.99065 1.567098,-5.86327 2.350648,-8.79491 C 31.424745,96.987811 31.747968,95.307284 37.43285,87.484182 47.470178,73.671577 60.816156,62.77411 73.553832,51.599827 76.4865,49.065825 79.413506,46.525261 82.351831,43.997824 89.185741,38.11955 96.02213,32.144774 103.69768,27.36705 c 0,0 -3.6168,1.428617 -3.6168,1.428617 z" />
  </g>
</svg>
