<?xml version="1.0" encoding="UTF-8" standalone="no"?>
<!-- Created with Inkscape (http://www.inkscape.org/) -->

<svg
   width="200mm"
   height="200mm"
   viewBox="0 0 200 200"
   version="1.1"
   id="svg152"
   inkscape:version="1.1 (c68e22c387, 2021-05-23)"
   sodipodi:docname="7.svg"
   xmlns:inkscape="http://www.inkscape.org/namespaces/inkscape"
   xmlns:sodipodi="http://sodipodi.sourceforge.net/DTD/sodipodi-0.dtd"
   xmlns="http://www.w3.org/2000/svg"
   xmlns:svg="http://www.w3.org/2000/svg">
  <sodipodi:namedview
     id="namedview154"
     pagecolor="#ffffff"
     bordercolor="#666666"
     borderopacity="1.0"
     inkscape:pageshadow="2"
     inkscape:pageopacity="0.0"
     inkscape:pagecheckerboard="0"
     inkscape:document-units="mm"
     showgrid="false"
     inkscape:zoom="0.67081229"
     inkscape:cx="396.53418"
     inkscape:cy="560.51448"
     inkscape:window-width="1920"
     inkscape:window-height="1017"
     inkscape:window-x="-8"
     inkscape:window-y="-8"
     inkscape:window-maximized="1"
     inkscape:current-layer="layer1" />
  <defs
     id="defs149" />
  <g
     inkscape:label="图层 1"
     inkscape:groupmode="layer"
     id="layer1">
    <path
       style="fill:#0000ff;stroke-width:0.264583"
       id="path189"
       d="m 59.914527,40.331651 c 10.995147,0.55099 22.013529,0.465712 33.0185,0.504725 14.794843,0.05245 15.775643,0.07081 30.581973,0.170299 11.39622,0.123036 22.79753,0.173339 34.19025,0.520012 2.99602,0.09117 7.74644,0.275849 10.94147,0.600094 0.81496,0.08271 1.61994,0.244554 2.42991,0.366828 2.14664,0.05378 -0.26748,0.950019 -0.0883,0.765858 0.4683,-0.481206 2.29778,-1.05397 1.63709,-1.173771 -0.85921,-0.155792 -1.61556,0.664956 -2.40688,1.034193 -3.87332,1.807337 -4.87538,2.604928 -9.32688,5.231312 -1.24459,0.873832 -2.5447,1.67349 -3.73376,2.621495 -1.48661,1.185238 -2.89304,2.469726 -4.28135,3.768727 -3.41531,3.195622 -6.30832,6.128978 -9.0181,9.999334 -3.3485,4.782646 -7.17368,11.950285 -9.98383,16.980342 -6.5516,12.401262 -12.14585,25.273441 -17.00974,38.421641 -2.36805,6.40139 -2.9402,8.26929 -5.00325,14.45804 0,0 2.76977,-1.30426 2.76977,-1.30426 v 0 c 1.92894,-6.21486 2.37145,-7.85178 4.67442,-14.28858 4.7124,-13.17114 10.28363,-26.030381 16.93654,-38.344113 3.5536,-6.265098 6.15645,-11.279958 10.38325,-17.100338 2.75624,-3.795401 5.7872,-6.884281 9.22406,-10.02887 1.43721,-1.314992 2.90575,-2.599965 4.44357,-3.795752 1.22118,-0.949577 2.54827,-1.754503 3.8224,-2.631755 1.67323,-1.300885 3.71239,-1.760728 5.56816,-2.687233 1.65861,-0.828066 3.35072,-1.615244 4.89224,-2.645 0.28071,-0.187523 0.55457,-0.598199 0.4358,-0.914209 -0.12558,-0.334166 -0.63915,-0.318164 -0.95873,-0.477245 -4.69944,-0.401188 -9.39675,-0.45266 -14.1137,-0.476353 -11.62774,-0.05841 -23.25649,0.06852 -34.88425,-0.01775 C 110.63367,39.78185 96.219599,39.650876 81.803988,39.193972 76.712809,39.032608 71.608565,38.846966 66.52588,38.478624 65.351408,38.39351 64.181531,38.25381 63.009356,38.141402 c 0,0 -3.094829,2.190247 -3.094829,2.190247 z" />
  </g>
</svg>
