<?xml version="1.0" encoding="UTF-8" standalone="no"?>
<!-- Created with Inkscape (http://www.inkscape.org/) -->

<svg
   width="200mm"
   height="200mm"
   viewBox="0 0 200 200"
   version="1.1"
   id="svg199"
   inkscape:version="1.1 (c68e22c387, 2021-05-23)"
   sodipodi:docname="8.svg"
   xmlns:inkscape="http://www.inkscape.org/namespaces/inkscape"
   xmlns:sodipodi="http://sodipodi.sourceforge.net/DTD/sodipodi-0.dtd"
   xmlns="http://www.w3.org/2000/svg"
   xmlns:svg="http://www.w3.org/2000/svg">
  <sodipodi:namedview
     id="namedview201"
     pagecolor="#ffffff"
     bordercolor="#666666"
     borderopacity="1.0"
     inkscape:pageshadow="2"
     inkscape:pageopacity="0.0"
     inkscape:pagecheckerboard="0"
     inkscape:document-units="mm"
     showgrid="false"
     inkscape:zoom="0.67081229"
     inkscape:cx="396.53418"
     inkscape:cy="560.51448"
     inkscape:window-width="1920"
     inkscape:window-height="1017"
     inkscape:window-x="-8"
     inkscape:window-y="-8"
     inkscape:window-maximized="1"
     inkscape:current-layer="layer1" />
  <defs
     id="defs196" />
  <g
     inkscape:label="图层 1"
     inkscape:groupmode="layer"
     id="layer1">
    <path
       style="fill:#0000ff;stroke-width:0.264583"
       id="path236"
       d="m 70.140035,18.579758 c -3.134857,0.183689 -6.263708,0.748999 -9.299172,1.547483 -1.161542,0.305546 -2.337655,0.591041 -3.444666,1.056949 -3.167491,1.333104 -5.779985,3.809251 -8.425204,5.861626 -0.60352,1.014606 -1.325652,1.967469 -1.810557,3.04382 -1.443731,3.204673 -1.932472,6.966585 -1.620533,10.445805 0.262334,2.925964 0.779195,4.080349 1.639239,6.895135 1.455936,3.89786 3.149396,7.70455 5.533985,11.138034 1.162222,1.673445 2.455183,3.253007 3.732099,4.840669 3.43259,4.26793 4.42718,5.24823 8.064952,9.260453 4.782601,5.0779 9.867718,9.88005 14.367052,15.221046 2.618296,3.108084 3.878795,4.906449 6.283505,8.144607 2.421694,3.665387 3.746162,5.454535 5.767663,9.412875 2.68074,5.24921 4.794536,10.85334 6.493848,16.49096 0.499185,1.65609 0.905032,3.33889 1.357546,5.00833 0.943943,4.01287 1.720038,8.0719 2.056058,12.18519 0.14748,1.80537 0.21565,3.69559 0.0513,5.50834 -0.0579,0.6384 -0.19993,1.26636 -0.2999,1.89954 -0.4387,1.41457 -1.120589,2.59029 -2.365136,3.43776 -0.45063,0.30686 -1.365356,1.32786 -1.433777,0.78699 -0.148603,-1.17476 4.941243,-1.97178 -1.015709,-0.59576 -0.972455,0.13502 -1.941558,0.2969 -2.917365,0.40504 -1.901102,0.2107 -4.685522,0.38723 -6.588228,0.45558 -2.168213,0.0779 -4.348488,0.11452 -6.513319,-0.0806 -0.997495,-0.0899 -1.984013,-0.27571 -2.97602,-0.41357 -3.033295,-0.7194 -5.865731,-1.8572 -8.312399,-3.83242 -1.85098,-1.49431 -3.832809,-3.67912 -5.277352,-5.54389 -0.868178,-1.12073 -1.63158,-2.31884 -2.44737,-3.47827 -2.411531,-3.58898 -4.151804,-7.50386 -5.318228,-11.66076 -0.677717,-2.41525 -1.506889,-5.49088 -0.835586,-8.05188 0.402238,-1.53453 1.379421,-2.85718 2.069132,-4.28578 1.233069,-1.4622 2.342605,-3.03822 3.699208,-4.3866 7.394123,-7.34928 17.34335,-11.723745 26.524455,-16.320928 4.44414,-2.184474 6.950358,-3.393816 11.301802,-5.617014 1.553064,-0.793478 3.127722,-1.548604 4.641882,-2.414024 2.29902,-1.314008 4.64309,-2.573139 6.79173,-4.120872 2.46649,-1.776683 3.78232,-3.872159 5.56148,-6.234893 0.55542,-1.116039 1.23811,-2.177338 1.66628,-3.348117 0.75756,-2.071502 1.19648,-4.957606 0.97747,-7.164898 -0.22637,-2.281484 -1.29774,-5.4385 -2.30311,-7.478464 -0.61016,-1.238057 -1.40771,-2.374585 -2.11157,-3.561876 -2.8251,-3.829778 -6.06361,-7.319264 -9.68014,-10.412799 -3.62202,-3.098223 -7.578504,-5.754489 -11.517041,-8.422589 -4.89304,-3.298786 -10.12825,-6.010802 -15.570991,-8.267501 -1.998263,-0.741789 -3.973777,-1.562092 -6.001152,-2.224015 -0.425149,-0.147329 -0.841029,-0.308515 -1.243828,-0.508218 0,0 -3.301254,2.164822 -3.301254,2.164822 v 0 c 0.422265,0.228327 0.861301,0.390828 1.316884,0.5446 2.072119,0.599732 4.074438,1.425086 6.119525,2.10674 5.537358,2.121101 10.874176,4.732814 15.829679,8.008096 2.834944,1.880603 4.917008,3.203747 7.654202,5.263494 5.096036,3.834783 9.733046,8.237188 13.419656,13.467926 0.68672,1.176319 1.46383,2.304333 2.06015,3.528957 1.04143,2.138677 1.98869,4.983681 2.19611,7.372535 0.19226,2.214322 -0.24723,4.95154 -1.02635,7.022007 -0.43132,1.146189 -1.10772,2.184512 -1.66157,3.276764 -2.84596,3.740949 -1.85744,2.793175 -5.51703,6.0838 -0.34603,0.311148 -0.70093,0.622245 -1.10473,0.853546 -1.54314,0.883931 -3.14115,1.668595 -4.72164,2.483874 -4.579953,2.362528 -6.693725,3.375369 -11.389093,5.688235 -7.154746,3.582715 -14.311891,7.111592 -21.137199,11.311712 -3.591113,2.20989 -7.720791,5.16667 -10.723047,8.17026 -1.388866,1.38949 -2.52481,3.01062 -3.787214,4.51593 -0.702585,1.4884 -1.705083,2.86932 -2.107755,4.46518 -0.650505,2.57809 0.250314,5.70844 0.936847,8.12758 1.189191,4.19037 2.890605,8.14485 5.349026,11.75765 0.809754,1.17574 1.566166,2.39006 2.429261,3.52722 1.332576,1.75572 3.529536,4.23973 5.239919,5.67682 2.450624,2.05903 5.310518,3.20627 8.381249,3.9849 1.005263,0.14209 2.004859,0.33267 3.015792,0.42627 2.193449,0.20308 4.35061,0.16794 6.548721,0.0972 1.782778,-0.0574 4.768408,-0.22912 6.55825,-0.39904 0.963539,-0.0915 1.922315,-0.2276 2.883472,-0.3414 4.02808,-0.80143 2.128843,-0.21031 7.455931,-2.97319 2.02877,-1.05222 3.07378,-2.30115 3.62926,-4.52355 0.0721,-0.63497 0.18344,-1.2667 0.21631,-1.9049 0.0931,-1.80666 -0.0346,-3.68747 -0.21861,-5.47801 -0.42157,-4.10215 -1.26281,-8.13478 -2.26854,-12.13076 -0.47501,-1.66339 -0.90893,-3.33906 -1.42503,-4.99016 -1.234978,-3.95093 -2.403722,-7.11733 -4.017162,-10.94271 -0.795043,-1.885 -1.591908,-3.77231 -2.507091,-5.60201 C 91.761592,99.926677 90.361293,97.979661 88.007298,94.346823 85.815286,91.431589 84.040614,88.996951 81.696509,86.187314 77.214338,80.815 72.081109,76.046632 67.226521,71.022279 63.096801,66.523793 58.966991,62.02285 55.609953,56.893476 53.343923,53.431109 51.689751,49.612905 50.252939,45.749739 49.442981,43.005264 48.9244,41.775298 48.681587,38.930689 c -0.293291,-3.436012 0.206663,-7.125586 1.695355,-10.263915 0.50075,-1.055635 1.23799,-1.981877 1.856986,-2.972815 -1.298295,-1.390736 -1.142651,-0.812004 2.389362,-2.364149 1.099873,-0.48334 2.275535,-0.777265 3.436114,-1.087743 2.905681,-0.777327 5.926003,-1.334192 8.938784,-1.379564 0,0 3.141887,-2.282715 3.141887,-2.282715 z" />
  </g>
</svg>
