<?xml version="1.0" encoding="UTF-8" standalone="no"?>
<!-- Created with Inkscape (http://www.inkscape.org/) -->

<svg
   width="200mm"
   height="200mm"
   viewBox="0 0 200 200"
   version="1.1"
   id="svg246"
   inkscape:version="1.1 (c68e22c387, 2021-05-23)"
   sodipodi:docname="9.svg"
   xmlns:inkscape="http://www.inkscape.org/namespaces/inkscape"
   xmlns:sodipodi="http://sodipodi.sourceforge.net/DTD/sodipodi-0.dtd"
   xmlns="http://www.w3.org/2000/svg"
   xmlns:svg="http://www.w3.org/2000/svg">
  <sodipodi:namedview
     id="namedview248"
     pagecolor="#ffffff"
     bordercolor="#666666"
     borderopacity="1.0"
     inkscape:pageshadow="2"
     inkscape:pageopacity="0.0"
     inkscape:pagecheckerboard="0"
     inkscape:document-units="mm"
     showgrid="false"
     inkscape:zoom="0.67081229"
     inkscape:cx="396.53418"
     inkscape:cy="560.51448"
     inkscape:window-width="1920"
     inkscape:window-height="1017"
     inkscape:window-x="-8"
     inkscape:window-y="-8"
     inkscape:window-maximized="1"
     inkscape:current-layer="layer1" />
  <defs
     id="defs243" />
  <g
     inkscape:label="图层 1"
     inkscape:groupmode="layer"
     id="layer1">
    <path
       style="fill:#0000ff;stroke-width:0.264583"
       id="path283"
       d="m 112.02873,29.038147 c -7.14532,-1.562436 -14.453107,-2.167323 -21.738586,-2.625156 -1.275647,-0.009 -2.552653,-0.08658 -3.826936,-0.02698 -6.156894,0.287972 -10.682645,2.297826 -15.692485,5.976579 -1.04657,0.768501 -1.850435,1.821953 -2.775651,2.732929 -4.11447,4.601292 -6.961577,9.853888 -8.483711,15.855103 -1.039771,4.09942 -0.969709,5.723631 -1.262444,9.893541 0.144743,1.650008 0.130122,3.321836 0.434226,4.950023 1.244161,6.661293 4.902396,13.303668 9.613247,18.148425 0.994526,1.022799 2.152419,1.872937 3.228631,2.809404 1.170093,0.57841 2.262444,1.352378 3.510282,1.735232 2.700936,0.828681 5.677546,0.633958 8.38939,0.06588 5.182404,-1.085606 9.836716,-3.641502 14.462945,-6.083501 2.493462,-1.535562 5.087942,-2.918036 7.480372,-4.606684 2.57015,-1.814081 6.49866,-5.697839 8.60288,-8.033543 1.94376,-2.157603 4.68817,-5.640832 6.19084,-8.19091 0.81072,-1.37581 1.42257,-2.859506 2.13385,-4.289261 2.43158,-5.681424 4.15612,-11.641992 5.00068,-17.761614 0.0993,-0.951886 0.22257,-1.979708 0.26842,-2.941902 0.0145,-0.304128 0.0781,-0.617172 0.008,-0.913389 -0.0355,-0.149164 -0.1716,-0.415965 -0.30645,-0.343019 -4.46047,2.412706 -3.61591,1.523529 -4.71175,5.142346 -2.54813,9.977154 -4.25992,20.146052 -5.93468,30.299141 -1.88985,11.89169 -3.55698,23.817998 -5.2934,35.732949 -1.30316,9.06807 -2.51347,18.15096 -4.20443,27.15665 -1.18624,5.39855 -2.28177,10.81171 -3.20758,16.26092 -0.47689,2.74075 -1.13143,5.45618 -1.40376,8.22844 -0.11854,2.12189 -0.11135,4.24913 -0.12123,6.37381 0,0 3.44634,-1.75597 3.44634,-1.75597 v 0 c -0.01,-2.11424 -0.0264,-4.23222 0.14281,-6.34149 0.27812,-2.72922 0.7854,-5.42566 1.25479,-8.12695 0.89632,-5.4077 1.89551,-10.79466 3.01731,-16.16071 1.66845,-8.95599 2.63358,-18.01362 3.91443,-27.03006 1.71485,-11.933742 3.41988,-23.870244 5.37695,-35.767231 1.66315,-10.213953 3.313,-20.485086 6.30676,-30.410022 0.33463,-0.835851 1.72005,-1.961891 1.0039,-2.507552 -0.82174,-0.626104 -1.94701,0.69173 -2.91564,1.050944 -0.0581,0.02156 0.1668,-0.0973 0.18221,-0.03725 0.0715,0.278567 0.0341,0.574715 0.0295,0.862267 -0.0145,0.897736 -0.12387,2.000234 -0.19686,2.877868 -0.74221,6.019794 -2.31843,11.90694 -4.70467,17.49081 -0.71391,1.41433 -1.33544,2.879203 -2.14171,4.242993 -0.81768,1.383099 -1.75272,2.69643 -2.71952,3.979727 -3.91172,5.192282 -8.62986,9.764353 -13.96382,13.481561 -4.566208,2.432886 -9.15852,4.976196 -14.272905,6.092804 -2.614623,0.570841 -5.59358,0.79929 -8.220665,0.05178 -1.239679,-0.352738 -2.336745,-1.088361 -3.505116,-1.63254 -1.085424,-0.909617 -2.252588,-1.729769 -3.256272,-2.728852 -4.833895,-4.811734 -8.338084,-11.224866 -9.536681,-17.954805 -0.287763,-1.615733 -0.270319,-3.271165 -0.405479,-4.906748 0.301929,-4.2814 0.197831,-5.613619 1.306856,-9.821897 1.557364,-5.909542 4.523746,-11.277779 8.665721,-15.756162 0.95432,-0.899874 1.965933,-1.742628 2.862961,-2.699625 0.05577,-0.0595 -0.271902,-0.106818 -0.198694,-0.142762 4.260032,-2.091594 8.937426,-2.735027 13.641443,-2.521053 7.153613,0.405307 14.375211,0.941581 21.318291,2.818461 0,0 3.20738,-2.192944 3.20738,-2.192944 z" />
  </g>
</svg>
